<svg width="134" height="135" viewBox="0 0 134 135" fill="none" xmlns="http://www.w3.org/2000/svg">
<path fill-rule="evenodd" clip-rule="evenodd" d="M109.609 15.2997C98.029 5.7462 83.1847 0.00756836 67 0.00756836C50.8153 0.00756836 35.971 5.7462 24.3908 15.2997C39.1308 27.6818 48.5 46.2506 48.5 67.0076C48.5 87.7646 39.1308 106.333 24.3908 118.715C35.971 128.269 50.8153 134.008 67 134.008C83.1847 134.008 98.029 128.269 109.609 118.715C94.8699 106.334 85.5 87.765 85.5 67.0076C85.5 46.2506 94.8692 27.6818 109.609 15.2997ZM110.388 118.063C124.835 105.774 134 87.4609 134 67.0076C134 46.5542 124.835 28.2415 110.388 15.952C95.7879 28.1505 86.5 46.4944 86.5 67.0076C86.5 87.5203 95.7872 105.864 110.388 118.063ZM47.5 67.0076C47.5 46.4944 38.2121 28.1505 23.6121 15.952C9.16494 28.2415 0 46.5542 0 67.0076C0 87.4609 9.16494 105.774 23.6121 118.063C38.212 105.865 47.5 87.5207 47.5 67.0076Z" fill="#590D56"/>
</svg>
