<svg width="134" height="135" viewBox="0 0 134 135" fill="none" xmlns="http://www.w3.org/2000/svg">
<path fill-rule="evenodd" clip-rule="evenodd" d="M89.9899 64.5967C78.7871 95.6931 55.0596 115.505 35.6726 126.248C25.2975 120.75 16.5397 112.606 10.2981 102.716C16.0696 96.2667 23.8207 89.7167 33.8994 84.5045C41.3403 80.6566 49.7347 77.6719 58.5562 74.8461C61.4812 73.9091 64.4554 72.9889 67.4563 72.0605L67.4607 72.0591C73.4939 70.1925 79.635 68.2926 85.7023 66.1549C87.1354 65.65 88.5653 65.1315 89.9899 64.5967ZM91.2172 64.1313C91.1838 64.2253 91.1505 64.3196 91.1171 64.4138C80.0026 95.7786 56.2919 115.83 36.7357 126.799C45.8263 131.409 56.1097 134.008 67 134.008C104.003 134.008 134 104.011 134 67.0076C134 57.7917 132.139 49.0105 128.773 41.019C118.137 52.0024 104.957 58.868 91.2172 64.1313ZM128.344 40.0229C118.003 50.8232 105.162 57.6455 91.6553 62.8905C99.181 41.5275 103.553 26.4286 105.957 16.2056C106.22 15.0842 106.461 14.0214 106.679 13.015C116.068 19.9265 123.589 29.2284 128.344 40.0229ZM90.4286 63.3618C88.7505 64 87.0632 64.6152 85.3699 65.2118C79.3187 67.3438 73.2096 69.2338 67.1863 71.0972C64.1805 72.027 61.1962 72.9503 58.2511 73.8937C49.4186 76.7231 40.9585 79.7283 33.4401 83.6163C23.3613 88.8284 15.5767 95.366 9.74902 101.83C3.56348 91.6826 0 79.7612 0 67.0076C0 30.0045 29.9969 0.00756836 67 0.00756836C81.4579 0.00756836 94.8462 4.58704 105.794 12.3745C105.553 13.4999 105.284 14.6996 104.983 15.9767C102.56 26.2817 98.1207 41.595 90.4286 63.3618Z" fill="#590D56"/>
</svg>
