<svg width="1440" height="679" viewBox="0 0 1440 679" fill="none" xmlns="http://www.w3.org/2000/svg">
<path fill-rule="evenodd" clip-rule="evenodd" d="M213.694 224.827C134.746 214.659 58.4705 194.39 0.159496 174.761L-0.159546 175.709C58.1979 195.354 134.538 215.641 213.567 225.819C292.588 235.997 374.337 236.072 443.49 215.261C495.521 199.604 545.539 175.215 596.066 148.441C609.916 141.103 623.803 133.585 637.78 126.019C674.809 105.975 712.472 85.5869 751.763 67.2634C859.98 16.7954 980.45 -17.964 1133.51 13.5063C1256.09 38.7119 1359.86 83.6453 1439.75 129.555L1440.25 128.688C1360.28 82.7336 1256.41 37.757 1133.71 12.5268C980.369 -19.0016 859.673 15.8355 751.34 66.3571C712.021 84.6938 674.319 105.103 637.282 125.152L637.281 125.152L637.28 125.153L637.276 125.155L637.271 125.158C623.302 132.719 609.428 140.229 595.598 147.558C545.082 174.325 495.135 198.675 443.202 214.304C374.24 235.057 292.65 234.996 213.694 224.827ZM443.317 320.853C305.234 312.758 116.697 320.906 0.032694 328.557L-0.0327436 327.559C116.639 319.908 305.228 311.756 443.375 319.855C509.637 323.739 572.633 330.383 637.624 337.236L637.625 337.236C686.266 342.366 736.025 347.613 789.106 351.91C887.765 329.917 997.918 316.971 1133.66 331.953C1181.26 337.207 1226.02 344.055 1267.65 351.911C1333.25 347.417 1391.06 342.016 1439.94 336.544L1440.06 337.538C1392.11 342.906 1335.57 348.205 1271.52 352.646C1335.6 364.891 1392.18 379.499 1440.15 394.298L1439.85 395.253C1390.98 380.178 1333.18 365.298 1267.59 352.917C1225.97 355.768 1181.21 358.253 1133.63 360.159C997.94 365.594 887.817 360.897 789.178 352.918C776.497 355.747 764.005 358.725 751.673 361.812C712.377 371.649 674.708 382.595 637.678 393.355C623.701 397.416 609.816 401.451 595.969 405.39C545.442 419.762 495.437 432.849 443.426 441.251C305.222 463.577 116.589 441.105 -0.0889369 420.021L0.0888873 419.037C116.748 440.117 305.24 462.561 443.266 440.264C495.219 431.872 545.179 418.797 595.695 404.428C609.531 400.492 623.41 396.46 637.383 392.399L637.385 392.399L637.387 392.398C674.422 381.637 712.117 370.683 751.43 360.842C762.752 358.007 774.21 355.265 785.825 352.646C733.897 348.395 685.124 343.252 637.435 338.224C572.463 331.372 509.502 324.733 443.317 320.853ZM1133.59 359.16C999.408 364.534 890.267 360.001 792.496 352.183C890.265 330.637 999.396 318.14 1133.55 332.947C1179.68 338.039 1223.14 344.629 1263.67 352.182C1223.15 354.922 1179.7 357.312 1133.59 359.16ZM0.0492816 640.792C116.712 652.353 305.236 664.665 443.302 652.434C509.511 646.568 572.457 636.538 637.425 626.185L637.438 626.183L637.448 626.181C657.699 622.954 678.146 619.696 698.95 616.523C678.113 609.232 657.631 601.745 637.348 594.33L637.344 594.328C623.373 589.221 609.497 584.148 595.664 579.198C545.148 561.122 495.192 544.674 443.246 534.117C305.242 506.071 116.769 534.302 0.110816 560.823L-0.110865 559.847C116.568 533.322 305.219 505.046 443.446 533.137C495.464 543.709 545.474 560.176 596.001 578.257C609.849 583.212 623.734 588.288 637.711 593.398C658.567 601.022 679.624 608.72 701.061 616.201C717.613 613.684 734.394 611.223 751.484 608.877C859.781 594.01 980.398 583.763 1133.64 593.038C1222.44 598.413 1301.37 606.833 1368.51 616.203C1394.02 608.032 1417.82 599.546 1439.82 591.01L1440.18 591.942C1418.74 600.265 1395.57 608.539 1370.79 616.522C1395.54 619.997 1418.67 623.6 1440.08 627.223L1439.92 628.209C1417.92 624.487 1394.11 620.788 1368.6 617.225C1301.44 638.727 1222.49 658.047 1133.68 670.38C980.383 691.666 859.722 668.149 751.401 634.034C734.31 628.651 717.525 623.004 700.967 617.227C679.537 620.487 658.484 623.842 637.635 627.164C572.639 637.521 509.628 647.562 443.39 653.43C305.226 665.669 116.625 653.349 -0.0493313 641.787L0.0492816 640.792ZM703.083 616.906C719.052 622.462 735.234 627.894 751.702 633.08C859.93 667.166 980.436 690.649 1133.54 669.39C1221.42 657.187 1299.63 638.137 1366.31 616.907C1299.64 607.655 1221.44 599.355 1133.58 594.036C980.421 584.766 859.872 595.007 751.62 609.868C735.183 612.125 719.028 614.488 703.083 616.906Z" fill="#590D56"/>
</svg>
