<svg width="211" height="47" viewBox="0 0 211 47" fill="none" xmlns="http://www.w3.org/2000/svg">
<g clip-path="url(#clip0_2_19)" filter="url(#filter0_d_2_19)">
<path d="M27.652 28.7498C27.652 30.3119 27.358 31.6939 26.7699 32.896C26.1818 34.0909 25.3858 35.0771 24.3889 35.8545C23.2056 36.7831 21.9147 37.4453 20.5019 37.8412C19.0891 38.2371 17.2962 38.4315 15.1232 38.4315H4V6.95361H13.2873C15.575 6.95361 17.289 7.03999 18.4221 7.20555C19.5624 7.37111 20.6453 7.73102 21.6852 8.26369C22.8327 8.87554 23.6718 9.64575 24.1953 10.6031C24.7117 11.5533 24.977 12.6906 24.977 14.0151C24.977 15.5123 24.5969 16.7792 23.8367 17.8301C23.0765 18.8811 22.0653 19.7233 20.8031 20.3567V20.5295C22.9259 20.9686 24.5969 21.8971 25.8161 23.3296C27.0424 24.7548 27.652 26.5616 27.652 28.7498ZM20.6382 14.5621C20.6382 13.8063 20.5091 13.1585 20.2581 12.6402C20.0071 12.1219 19.5983 11.6972 19.0389 11.3733C18.3791 10.9918 17.5759 10.7615 16.6364 10.6679C15.6969 10.5743 14.5279 10.5311 13.1366 10.5311H8.17389V19.6225H13.5669C14.8722 19.6225 15.9121 19.5577 16.6866 19.4209C17.454 19.2842 18.1711 19.0106 18.8381 18.5859C19.4979 18.1685 19.964 17.6214 20.2366 16.9448C20.5019 16.2681 20.6382 15.4763 20.6382 14.5621ZM23.3132 28.9154C23.3132 27.6485 23.1267 26.6408 22.7466 25.8922C22.3665 25.1435 21.6781 24.5101 20.6812 23.9918C20.0071 23.6391 19.1895 23.4088 18.2285 23.308C17.2675 23.2 16.0985 23.1496 14.7216 23.1496H8.17389V34.8611H13.696C15.5248 34.8611 17.0165 34.7676 18.1855 34.5732C19.3473 34.3861 20.3083 34.0333 21.047 33.5295C21.8358 32.9752 22.4096 32.349 22.7753 31.6435C23.1339 30.9381 23.3132 30.0311 23.3132 28.9154Z" fill="#47093E"/>
<path d="M54.2373 38.4315H33.5758V6.95361H54.2373V10.6751H37.7425V19.3058H54.2373V23.0273H37.7425V34.7172H54.2373V38.4315Z" fill="#47093E"/>
<path d="M84.8457 38.4315H80.6719V23.0201H65.0234V38.4315H60.8495V6.95361H65.0234V19.2986H80.6719V6.95361H84.8457V38.4315Z" fill="#47093E"/>
<path d="M118 38.4315H113.554L110.477 29.6568H96.9155L93.8389 38.4315H89.6077L101.025 6.95361H106.583L118 38.4315ZM109.193 26.0649L103.7 10.6103L98.1849 26.0649H109.193Z" fill="#47093E"/>
<path d="M143.273 16.4697C143.273 17.8661 143.029 19.1546 142.549 20.3495C142.061 21.5372 141.387 22.5738 140.519 23.4448C139.436 24.5317 138.16 25.3451 136.682 25.885C135.205 26.432 133.347 26.6984 131.103 26.6984H126.929V38.4315H122.755V6.95361H131.268C133.154 6.95361 134.746 7.11197 136.051 7.4287C137.356 7.74542 138.518 8.2421 139.529 8.91873C140.72 9.72493 141.645 10.7255 142.298 11.9204C142.943 13.1153 143.273 14.6341 143.273 16.4697ZM138.934 16.5704C138.934 15.4835 138.74 14.5405 138.368 13.7343C137.987 12.9353 137.414 12.2731 136.639 11.7692C135.965 11.3301 135.198 11.0206 134.33 10.8263C133.469 10.6391 132.372 10.5455 131.053 10.5455H126.922V23.128H130.443C132.128 23.128 133.498 22.9769 134.552 22.6745C135.606 22.3722 136.46 21.8899 137.12 21.2277C137.779 20.5511 138.246 19.8384 138.518 19.0898C138.798 18.3412 138.934 17.499 138.934 16.5704Z" fill="#47093E"/>
<path d="M170.97 6.95349L159.051 33.443C158.57 34.5155 158.011 35.3937 157.358 36.0847C156.705 36.7758 155.995 37.3084 155.242 37.6899C154.511 38.0426 153.808 38.2802 153.127 38.4025C152.445 38.5177 151.793 38.5825 151.155 38.5825C150.595 38.5825 149.914 38.5537 149.111 38.4961C148.307 38.4385 147.798 38.4026 147.569 38.3954V34.4795H147.863C148.078 34.5083 148.429 34.5515 148.917 34.6163C149.405 34.6811 149.971 34.7099 150.602 34.7099C150.882 34.7099 151.277 34.6883 151.786 34.6451C152.288 34.6019 152.74 34.5011 153.134 34.3499C153.586 34.1772 154.03 33.9109 154.468 33.5437C154.913 33.1766 155.285 32.644 155.594 31.9385L156.354 30.2686L144.686 6.94629H149.297L158.462 25.5105L166.674 6.94629H170.97V6.95349Z" fill="#47093E"/>
<path d="M199.534 36.1496C198.76 36.4879 198.064 36.8046 197.44 37.0997C196.816 37.3948 195.999 37.7044 194.988 38.0283C194.127 38.2946 193.202 38.525 192.198 38.7193C191.194 38.9065 190.089 39.0072 188.884 39.0072C186.611 39.0072 184.538 38.6833 182.681 38.0427C180.824 37.402 179.203 36.3943 177.826 35.0266C176.478 33.6878 175.423 31.989 174.67 29.9231C173.91 27.8572 173.53 25.4602 173.53 22.7249C173.53 20.1335 173.896 17.8157 174.627 15.7714C175.359 13.7271 176.406 11.9995 177.79 10.5886C179.124 9.22099 180.738 8.17724 182.624 7.45742C184.517 6.7376 186.611 6.37769 188.913 6.37769C190.599 6.37769 192.277 6.58643 193.955 6.98954C195.633 7.39983 197.498 8.11966 199.549 9.149V14.1158H199.233C197.505 12.6617 195.791 11.6108 194.091 10.9486C192.391 10.2863 190.57 9.9552 188.641 9.9552C187.049 9.9552 185.621 10.2143 184.352 10.7254C183.083 11.2437 181.95 12.0427 180.953 13.1224C179.984 14.1806 179.231 15.5194 178.686 17.1318C178.141 18.7442 177.876 20.6086 177.876 22.7249C177.876 24.9419 178.17 26.8422 178.772 28.4331C179.368 30.0311 180.142 31.3267 181.082 32.3273C182.064 33.371 183.212 34.1412 184.524 34.6451C185.837 35.149 187.221 35.3937 188.684 35.3937C190.692 35.3937 192.571 35.0482 194.328 34.3572C196.085 33.6662 197.727 32.6296 199.255 31.2476H199.549V36.1496H199.534Z" fill="#47093E"/>
<path d="M207 3.59192C207 4.58527 206.649 5.42746 205.953 6.12569C205.257 6.83112 204.411 7.17663 203.421 7.17663C202.439 7.17663 201.593 6.82392 200.897 6.12569C200.201 5.42746 199.85 4.57807 199.85 3.59192C199.85 2.60576 200.201 1.75637 200.897 1.05814C201.6 0.352713 202.439 0 203.428 0C204.418 0 205.257 0.352713 205.96 1.05094C206.656 1.75637 207 2.59856 207 3.59192ZM206.519 3.59192C206.519 2.73533 206.218 2.00111 205.609 1.38206C205.006 0.77021 204.275 0.460687 203.421 0.460687C202.568 0.460687 201.836 0.77021 201.234 1.38206C200.632 1.99391 200.323 2.73533 200.323 3.59192C200.323 4.4485 200.624 5.18272 201.234 5.80177C201.836 6.41362 202.568 6.72314 203.421 6.72314C204.275 6.72314 205.006 6.42082 205.609 5.80177C206.218 5.18272 206.519 4.4485 206.519 3.59192ZM205.731 5.41307H204.805L203.436 3.94463H202.769V5.41307H202.087V1.6196H203.378C203.636 1.6196 203.852 1.6268 204.017 1.65559C204.182 1.67719 204.346 1.72757 204.511 1.81395C204.684 1.90753 204.813 2.0227 204.892 2.15947C204.978 2.29623 205.013 2.46179 205.013 2.66334C205.013 2.92968 204.935 3.15282 204.777 3.33278C204.619 3.51274 204.404 3.6567 204.131 3.75747L205.731 5.41307ZM204.275 2.70653C204.275 2.60576 204.253 2.51938 204.217 2.4402C204.182 2.36102 204.117 2.29623 204.024 2.24585C203.938 2.19546 203.844 2.16667 203.751 2.15227C203.658 2.13787 203.536 2.13068 203.385 2.13068H202.769V3.41196H203.292C203.464 3.41196 203.608 3.39756 203.737 3.36877C203.859 3.33998 203.966 3.29679 204.038 3.232C204.124 3.16002 204.182 3.08804 204.217 3.00166C204.253 2.93688 204.275 2.8289 204.275 2.70653Z" fill="#47093E"/>
<path d="M27.652 28.7498C27.652 30.3119 27.358 31.6939 26.7699 32.896C26.1818 34.0909 25.3858 35.0771 24.3889 35.8545C23.2056 36.7831 21.9147 37.4453 20.5019 37.8412C19.0891 38.2371 17.2962 38.4315 15.1232 38.4315H4V6.95361H13.2873C15.575 6.95361 17.289 7.03999 18.4221 7.20555C19.5624 7.37111 20.6453 7.73102 21.6852 8.26369C22.8327 8.87554 23.6718 9.64575 24.1953 10.6031C24.7117 11.5533 24.977 12.6906 24.977 14.0151C24.977 15.5123 24.5969 16.7792 23.8367 17.8301C23.0765 18.8811 22.0653 19.7233 20.8031 20.3567V20.5295C22.9259 20.9686 24.5969 21.8971 25.8161 23.3296C27.0424 24.7548 27.652 26.5616 27.652 28.7498ZM20.6382 14.5621C20.6382 13.8063 20.5091 13.1585 20.2581 12.6402C20.0071 12.1219 19.5983 11.6972 19.0389 11.3733C18.3791 10.9918 17.5759 10.7615 16.6364 10.6679C15.6969 10.5743 14.5279 10.5311 13.1366 10.5311H8.17389V19.6225H13.5669C14.8722 19.6225 15.9121 19.5577 16.6866 19.4209C17.454 19.2842 18.1711 19.0106 18.8381 18.5859C19.4979 18.1685 19.964 17.6214 20.2366 16.9448C20.5019 16.2681 20.6382 15.4763 20.6382 14.5621ZM23.3132 28.9154C23.3132 27.6485 23.1267 26.6408 22.7466 25.8922C22.3665 25.1435 21.6781 24.5101 20.6812 23.9918C20.0071 23.6391 19.1895 23.4088 18.2285 23.308C17.2675 23.2 16.0985 23.1496 14.7216 23.1496H8.17389V34.8611H13.696C15.5248 34.8611 17.0165 34.7676 18.1855 34.5732C19.3473 34.3861 20.3083 34.0333 21.047 33.5295C21.8358 32.9752 22.4096 32.349 22.7753 31.6435C23.1339 30.9381 23.3132 30.0311 23.3132 28.9154Z" fill="#47093E"/>
<path d="M54.2373 38.4315H33.5758V6.95361H54.2373V10.6751H37.7425V19.3058H54.2373V23.0273H37.7425V34.7172H54.2373V38.4315Z" fill="#47093E"/>
<path d="M84.8457 38.4315H80.6719V23.0201H65.0234V38.4315H60.8495V6.95361H65.0234V19.2986H80.6719V6.95361H84.8457V38.4315Z" fill="#47093E"/>
<path d="M118 38.4315H113.554L110.477 29.6568H96.9155L93.8389 38.4315H89.6077L101.025 6.95361H106.583L118 38.4315ZM109.193 26.0649L103.7 10.6103L98.1849 26.0649H109.193Z" fill="#47093E"/>
<path d="M143.273 16.4697C143.273 17.8661 143.029 19.1546 142.549 20.3495C142.061 21.5372 141.387 22.5738 140.519 23.4448C139.436 24.5317 138.16 25.3451 136.682 25.885C135.205 26.432 133.347 26.6984 131.103 26.6984H126.929V38.4315H122.755V6.95361H131.268C133.154 6.95361 134.746 7.11197 136.051 7.4287C137.356 7.74542 138.518 8.2421 139.529 8.91873C140.72 9.72493 141.645 10.7255 142.298 11.9204C142.943 13.1153 143.273 14.6341 143.273 16.4697ZM138.934 16.5704C138.934 15.4835 138.74 14.5405 138.368 13.7343C137.987 12.9353 137.414 12.2731 136.639 11.7692C135.965 11.3301 135.198 11.0206 134.33 10.8263C133.469 10.6391 132.372 10.5455 131.053 10.5455H126.922V23.128H130.443C132.128 23.128 133.498 22.9769 134.552 22.6745C135.606 22.3722 136.46 21.8899 137.12 21.2277C137.779 20.5511 138.246 19.8384 138.518 19.0898C138.798 18.3412 138.934 17.499 138.934 16.5704Z" fill="#47093E"/>
<path d="M170.97 6.95349L159.051 33.443C158.57 34.5155 158.011 35.3937 157.358 36.0847C156.705 36.7758 155.995 37.3084 155.242 37.6899C154.511 38.0426 153.808 38.2802 153.127 38.4025C152.445 38.5177 151.793 38.5825 151.155 38.5825C150.595 38.5825 149.914 38.5537 149.111 38.4961C148.307 38.4385 147.798 38.4026 147.569 38.3954V34.4795H147.863C148.078 34.5083 148.429 34.5515 148.917 34.6163C149.405 34.6811 149.971 34.7099 150.602 34.7099C150.882 34.7099 151.277 34.6883 151.786 34.6451C152.288 34.6019 152.74 34.5011 153.134 34.3499C153.586 34.1772 154.03 33.9109 154.468 33.5437C154.913 33.1766 155.285 32.644 155.594 31.9385L156.354 30.2686L144.686 6.94629H149.297L158.462 25.5105L166.674 6.94629H170.97V6.95349Z" fill="#47093E"/>
<path d="M199.534 36.1496C198.76 36.4879 198.064 36.8046 197.44 37.0997C196.816 37.3948 195.999 37.7044 194.988 38.0283C194.127 38.2946 193.202 38.525 192.198 38.7193C191.194 38.9065 190.089 39.0072 188.884 39.0072C186.611 39.0072 184.538 38.6833 182.681 38.0427C180.824 37.402 179.203 36.3943 177.826 35.0266C176.478 33.6878 175.423 31.989 174.67 29.9231C173.91 27.8572 173.53 25.4602 173.53 22.7249C173.53 20.1335 173.896 17.8157 174.627 15.7714C175.359 13.7271 176.406 11.9995 177.79 10.5886C179.124 9.22099 180.738 8.17724 182.624 7.45742C184.517 6.7376 186.611 6.37769 188.913 6.37769C190.599 6.37769 192.277 6.58643 193.955 6.98954C195.633 7.39983 197.498 8.11966 199.549 9.149V14.1158H199.233C197.505 12.6617 195.791 11.6108 194.091 10.9486C192.391 10.2863 190.57 9.9552 188.641 9.9552C187.049 9.9552 185.621 10.2143 184.352 10.7254C183.083 11.2437 181.95 12.0427 180.953 13.1224C179.984 14.1806 179.231 15.5194 178.686 17.1318C178.141 18.7442 177.876 20.6086 177.876 22.7249C177.876 24.9419 178.17 26.8422 178.772 28.4331C179.368 30.0311 180.142 31.3267 181.082 32.3273C182.064 33.371 183.212 34.1412 184.524 34.6451C185.837 35.149 187.221 35.3937 188.684 35.3937C190.692 35.3937 192.571 35.0482 194.328 34.3572C196.085 33.6662 197.727 32.6296 199.255 31.2476H199.549V36.1496H199.534Z" fill="#47093E"/>
</g>
<defs>
<filter id="filter0_d_2_19" x="0" y="0" width="211" height="47" filterUnits="userSpaceOnUse" color-interpolation-filters="sRGB">
<feFlood flood-opacity="0" result="BackgroundImageFix"/>
<feColorMatrix in="SourceAlpha" type="matrix" values="0 0 0 0 0 0 0 0 0 0 0 0 0 0 0 0 0 0 127 0" result="hardAlpha"/>
<feOffset dy="4"/>
<feGaussianBlur stdDeviation="2"/>
<feComposite in2="hardAlpha" operator="out"/>
<feColorMatrix type="matrix" values="0 0 0 0 0 0 0 0 0 0 0 0 0 0 0 0 0 0 0.25 0"/>
<feBlend mode="normal" in2="BackgroundImageFix" result="effect1_dropShadow_2_19"/>
<feBlend mode="normal" in="SourceGraphic" in2="effect1_dropShadow_2_19" result="shape"/>
</filter>
<clipPath id="clip0_2_19">
<rect width="203" height="39" fill="white" transform="translate(4)"/>
</clipPath>
</defs>
</svg>
