<svg width="1440" height="771" viewBox="0 0 1440 771" fill="none" xmlns="http://www.w3.org/2000/svg">
<g filter="url(#filter0_d_2_39)">
<path d="M1150 9.61221C843.181 87.7086 842.5 459.768 441.962 310.552C303.655 259.027 114.83 310.891 -2 359.578V403.142C-2 403.142 307 261.5 606.5 614.5C906 967.5 1440 576 1440 576V94.9001C1322.5 38.0415 1272.82 -21.6491 1150 9.61221Z" fill="url(#paint0_linear_2_39)"/>
<path d="M1150 9.61221C843.181 87.7086 842.5 459.768 441.962 310.552C303.655 259.027 114.83 310.891 -2 359.578V403.142C-2 403.142 307 261.5 606.5 614.5C906 967.5 1440 576 1440 576V94.9001C1322.5 38.0415 1272.82 -21.6491 1150 9.61221Z" stroke="black"/>
</g>
<defs>
<filter id="filter0_d_2_39" x="-6.5" y="0.5" width="1451" height="769.993" filterUnits="userSpaceOnUse" color-interpolation-filters="sRGB">
<feFlood flood-opacity="0" result="BackgroundImageFix"/>
<feColorMatrix in="SourceAlpha" type="matrix" values="0 0 0 0 0 0 0 0 0 0 0 0 0 0 0 0 0 0 127 0" result="hardAlpha"/>
<feOffset dy="4"/>
<feGaussianBlur stdDeviation="2"/>
<feComposite in2="hardAlpha" operator="out"/>
<feColorMatrix type="matrix" values="0 0 0 0 0 0 0 0 0 0 0 0 0 0 0 0 0 0 0.25 0"/>
<feBlend mode="normal" in2="BackgroundImageFix" result="effect1_dropShadow_2_39"/>
<feBlend mode="normal" in="SourceGraphic" in2="effect1_dropShadow_2_39" result="shape"/>
</filter>
<linearGradient id="paint0_linear_2_39" x1="1318" y1="522.112" x2="187.078" y2="645.159" gradientUnits="userSpaceOnUse">
<stop stop-color="#590D56"/>
<stop offset="1" stop-color="#8C1688"/>
</linearGradient>
</defs>
</svg>
